<svg id="visual" viewBox="0 0 900 600" width="900" height="600" xmlns="http://www.w3.org/2000/svg" xmlns:xlink="http://www.w3.org/1999/xlink" version="1.1"><rect width="900" height="600" fill="#34a265"></rect><g><g transform="translate(452 362)"><path d="M0 -88.8L69.4 -55.4L86.6 19.8L38.5 80L-38.5 80L-86.6 19.8L-69.4 -55.4Z" fill="#FFFFFF"></path></g><g transform="translate(311 494)"><path d="M0 -73L57.1 -45.5L71.2 16.2L31.7 65.8L-31.7 65.8L-71.2 16.2L-57.1 -45.5Z" fill="#FFFFFF"></path></g><g transform="translate(49 79)"><path d="M0 -63L49.3 -39.3L61.4 14L27.3 56.8L-27.3 56.8L-61.4 14L-49.3 -39.3Z" fill="#FFFFFF"></path></g><g transform="translate(726 231)"><path d="M0 -86L67.2 -53.6L83.8 19.1L37.3 77.5L-37.3 77.5L-83.8 19.1L-67.2 -53.6Z" fill="#FFFFFF"></path></g><g transform="translate(832 510)"><path d="M0 -82L64.1 -51.1L79.9 18.2L35.6 73.9L-35.6 73.9L-79.9 18.2L-64.1 -51.1Z" fill="#FFFFFF"></path></g><g transform="translate(576 16)"><path d="M0 -62L48.5 -38.7L60.4 13.8L26.9 55.9L-26.9 55.9L-60.4 13.8L-48.5 -38.7Z" fill="#FFFFFF"></path></g><g transform="translate(95 587)"><path d="M0 -75L58.6 -46.8L73.1 16.7L32.5 67.6L-32.5 67.6L-73.1 16.7L-58.6 -46.8Z" fill="#FFFFFF"></path></g><g transform="translate(74 286)"><path d="M0 -78L61 -48.6L76 17.4L33.8 70.3L-33.8 70.3L-76 17.4L-61 -48.6Z" fill="#FFFFFF"></path></g><g transform="translate(579 517)"><path d="M0 -68L53.2 -42.4L66.3 15.1L29.5 61.3L-29.5 61.3L-66.3 15.1L-53.2 -42.4Z" fill="#FFFFFF"></path></g><g transform="translate(432 158)"><path d="M0 -65L50.8 -40.5L63.4 14.5L28.2 58.6L-28.2 58.6L-63.4 14.5L-50.8 -40.5Z" fill="#FFFFFF"></path></g><g transform="translate(262 229)"><path d="M0 -83L64.9 -51.7L80.9 18.5L36 74.8L-36 74.8L-80.9 18.5L-64.9 -51.7Z" fill="#FFFFFF"></path></g></g></svg>