<svg id="visual" viewBox="0 0 900 600" width="900" height="600" xmlns="http://www.w3.org/2000/svg" xmlns:xlink="http://www.w3.org/1999/xlink" version="1.1"><rect width="900" height="600" fill="#FFFFFF"></rect><g><g transform="translate(534 404)"><path d="M0 -112L87.6 -69.8L109.2 24.9L48.6 100.9L-48.6 100.9L-109.2 24.9L-87.6 -69.8Z" fill="#34a265"></path></g><g transform="translate(60 55)"><path d="M0 -93L72.7 -58L90.7 20.7L40.4 83.8L-40.4 83.8L-90.7 20.7L-72.7 -58Z" fill="#34a265"></path></g><g transform="translate(10 325)"><path d="M0 -98L76.6 -61.1L95.5 21.8L42.5 88.3L-42.5 88.3L-95.5 21.8L-76.6 -61.1Z" fill="#34a265"></path></g><g transform="translate(701 2)"><path d="M0 -111L86.8 -69.2L108.2 24.7L48.2 100L-48.2 100L-108.2 24.7L-86.8 -69.2Z" fill="#34a265"></path></g><g transform="translate(763 398)"><path d="M0 -101L79 -63L98.5 22.5L43.8 91L-43.8 91L-98.5 22.5L-79 -63Z" fill="#34a265"></path></g><g transform="translate(453 163)"><path d="M0 -92L71.9 -57.4L89.7 20.5L39.9 82.9L-39.9 82.9L-89.7 20.5L-71.9 -57.4Z" fill="#34a265"></path></g><g transform="translate(214 581)"><path d="M0 -99L77.4 -61.7L96.5 22L43 89.2L-43 89.2L-96.5 22L-77.4 -61.7Z" fill="#34a265"></path></g><g transform="translate(303 349)"><path d="M0 -93L72.7 -58L90.7 20.7L40.4 83.8L-40.4 83.8L-90.7 20.7L-72.7 -58Z" fill="#34a265"></path></g><g transform="translate(653 595)"><path d="M0 -101L79 -63L98.5 22.5L43.8 91L-43.8 91L-98.5 22.5L-79 -63Z" fill="#34a265"></path></g><g transform="translate(858 192)"><path d="M0 -96L75.1 -59.9L93.6 21.4L41.7 86.5L-41.7 86.5L-93.6 21.4L-75.1 -59.9Z" fill="#34a265"></path></g></g></svg>